<?xml version="1.0" standalone="no"?>
<!DOCTYPE svg PUBLIC "-//W3C//DTD SVG 20010904//EN"
 "http://www.w3.org/TR/2001/REC-SVG-20010904/DTD/svg10.dtd">
<svg version="1.0" xmlns="http://www.w3.org/2000/svg"
 width="1158.000000pt" height="1280.000000pt" viewBox="0 0 1158.000000 1280.000000"
 preserveAspectRatio="xMidYMid meet">
<g transform="translate(0.000000,1280.000000) scale(0.100000,-0.100000)"
fill="#000000" stroke="none">
<path d="M6315 12794 c-16 -2 -66 -9 -110 -15 -103 -13 -260 -50 -405 -96
-148 -46 -450 -168 -461 -185 -5 -7 -9 -29 -9 -48 -1 -64 -9 -80 -44 -80 -18
0 -41 -7 -52 -15 -10 -8 -28 -15 -39 -15 -13 0 -33 -20 -57 -58 -20 -31 -96
-122 -169 -202 -72 -80 -149 -172 -170 -204 -34 -52 -39 -66 -39 -118 0 -65
-6 -77 -121 -229 -32 -42 -74 -106 -94 -141 -29 -54 -35 -74 -35 -127 0 -73
-12 -94 -120 -221 -119 -139 -141 -204 -185 -550 -20 -155 -32 -218 -51 -259
-40 -89 -28 -135 23 -85 54 51 105 68 400 133 76 17 188 52 265 82 187 74 285
77 360 10 l31 -28 -122 -7 c-194 -11 -310 -56 -145 -56 107 0 314 -43 328 -68
5 -10 47 -55 92 -101 46 -46 84 -88 84 -92 0 -5 5 -9 10 -9 24 0 6 34 -51 97
-102 113 -111 126 -99 157 5 15 10 58 10 94 0 95 -28 130 -80 102 -19 -10 -19
-11 1 -31 44 -44 2 -38 -131 16 -74 30 -148 55 -164 55 -25 0 -28 -3 -24 -24
4 -22 3 -23 -19 -15 -13 5 -57 9 -96 9 -74 0 -147 15 -147 29 0 16 106 54 195
69 112 19 254 6 362 -32 85 -31 83 -31 83 -6 0 19 -11 24 -65 32 -12 2 -21 12
-23 27 -3 20 -1 22 15 16 97 -41 137 -39 184 11 29 31 26 34 -96 73 -103 33
-270 61 -369 61 -74 0 -83 11 -40 51 23 22 33 24 131 24 70 0 108 4 110 11 7
20 -29 27 -144 28 -94 1 -115 5 -132 20 -12 11 -21 23 -21 27 0 16 59 39 129
51 81 14 147 6 345 -42 139 -33 255 -46 300 -33 l29 9 -49 31 c-70 45 -183 87
-299 113 -85 18 -117 21 -211 15 -87 -5 -119 -3 -147 9 -38 15 -73 58 -62 76
4 6 61 10 149 10 144 0 262 -16 347 -45 23 -9 44 -13 47 -11 10 10 -35 71 -66
89 -28 17 -52 19 -170 18 -192 -1 -256 16 -217 59 16 17 30 20 116 20 104 0
160 13 141 32 -13 13 -43 14 -139 3 -52 -6 -81 -4 -103 5 -29 12 -30 14 -14
31 9 10 36 26 60 35 60 23 218 14 381 -20 129 -28 245 -35 209 -14 -11 6 -89
35 -174 65 -149 51 -268 99 -286 114 -9 8 56 29 90 29 12 0 32 8 44 18 21 17
22 21 10 56 -6 20 -10 39 -8 41 2 2 37 9 78 16 89 14 207 7 375 -21 66 -11
145 -20 177 -20 52 0 57 -2 66 -28 22 -64 112 -132 196 -148 53 -9 46 5 -34
70 -36 28 -78 71 -93 94 -62 92 -261 152 -507 152 -63 0 -189 -7 -280 -15 -91
-8 -178 -15 -195 -14 l-30 0 26 14 c108 58 314 97 517 96 135 0 147 -1 193
-26 52 -27 62 -26 79 5 16 30 -24 49 -141 66 -129 18 -180 47 -130 74 32 17
84 12 155 -15 l67 -25 10 29 c22 63 117 77 351 51 54 -6 108 -8 119 -5 21 7
21 7 -1 30 -12 13 -49 36 -83 51 -60 28 -67 29 -217 29 -132 -1 -171 -5 -265
-27 -340 -82 -420 -99 -457 -96 l-41 3 27 32 c14 17 52 46 84 65 l57 33 -38 3
c-27 2 -51 -4 -82 -22 -46 -27 -79 -33 -90 -16 -8 12 146 86 255 123 171 58
374 95 447 81 l36 -7 -34 -14 c-19 -8 -68 -21 -109 -29 -163 -31 -186 -37
-225 -57 -49 -25 -33 -32 37 -17 60 13 350 29 543 30 161 2 193 11 115 33 -30
9 -71 19 -92 22 l-36 7 16 29 c20 35 11 45 -55 55 -23 3 -50 12 -59 19 -14 10
11 16 152 39 323 51 459 47 623 -20 109 -45 186 -54 220 -27 l24 19 -51 37
c-58 43 -101 63 -197 90 -110 31 -407 34 -698 8 -126 -12 -245 -21 -265 -20
-36 0 -34 1 28 26 256 99 692 121 1034 52 54 -11 100 -18 103 -16 2 2 -24 15
-57 27 -68 25 -100 58 -100 102 0 34 -13 40 -140 69 -82 19 -341 34 -415 23z
m381 -55 c29 -9 72 -45 63 -52 -2 -2 -46 0 -97 3 -69 6 -101 13 -120 27 -50
38 -41 46 44 38 44 -3 93 -11 110 -16z m-1028 -311 c-21 -32 -108 -39 -108
-10 0 28 8 32 68 32 54 0 54 0 40 -22z m-541 -864 c38 -10 10 -41 -55 -60 -70
-20 -92 -38 -92 -77 0 -29 0 -30 -20 -12 -15 13 -29 16 -57 12 -21 -4 -47 -8
-58 -9 -37 -5 -29 30 10 46 20 9 55 29 79 46 69 50 137 69 193 54z m-216 -362
c-12 -23 -62 -47 -114 -55 -44 -7 -46 6 -6 35 21 16 118 48 127 42 2 -1 -1
-11 -7 -22z m-71 -172 c0 -25 -4 -30 -25 -30 -21 0 -25 5 -25 30 0 25 4 30 25
30 21 0 25 -5 25 -30z m-127 -189 c17 -6 16 -10 -14 -38 -82 -81 -193 -84
-148 -4 8 14 26 31 39 38 27 14 94 16 123 4z m97 -68 c0 -16 -35 -43 -57 -43
-25 0 -30 19 -11 38 13 13 68 17 68 5z m0 -332 c0 -13 -50 -51 -67 -51 -11 0
-11 4 -3 21 15 27 70 51 70 30z"/>
<path d="M8600 12647 c0 -2 7 -25 17 -52 18 -53 19 -51 -48 -97 -24 -17 -23
-17 51 -18 50 -1 106 -10 165 -28 l90 -27 32 -95 c80 -241 83 -406 9 -484
l-31 -33 23 -17 c18 -14 22 -27 22 -67 0 -50 -1 -52 -84 -135 -80 -80 -84 -83
-100 -65 -18 20 -116 65 -116 53 0 -4 9 -22 20 -40 26 -42 25 -57 -2 -76 -25
-18 -26 -16 30 -41 42 -18 68 -46 55 -59 -3 -3 -29 -6 -58 -6 -104 0 -212 85
-249 198 -22 65 -46 195 -46 247 0 38 3 44 23 47 21 3 22 7 20 89 -3 101 -40
254 -82 346 -56 118 -157 201 -270 219 -51 8 -53 -1 -5 -21 62 -26 163 -104
204 -159 68 -90 93 -158 94 -256 1 -94 -9 -145 -25 -134 -21 12 -47 89 -59
168 -14 96 -34 153 -62 183 -47 50 -50 21 -7 -60 18 -35 29 -69 27 -85 -4 -25
-11 -20 -119 90 -123 125 -159 148 -233 148 -57 0 -65 -13 -18 -30 159 -57
279 -181 330 -340 38 -117 45 -184 37 -365 -8 -199 5 -286 59 -400 46 -96 94
-148 174 -187 64 -32 72 -33 184 -33 l118 0 20 -47 c37 -86 21 -174 -41 -221
-19 -14 -68 -39 -109 -57 -103 -43 -152 -90 -95 -90 37 0 96 27 130 60 70 66
137 97 148 67 11 -28 -15 -126 -52 -203 -46 -92 -143 -204 -203 -235 -22 -11
-41 -19 -42 -17 -2 2 -8 47 -15 101 -12 101 -57 260 -89 311 -17 28 -21 30
-74 27 -63 -3 -119 17 -160 56 -15 15 -30 25 -32 22 -13 -13 37 -90 83 -128
45 -38 81 -85 81 -107 0 -12 -76 8 -117 32 -23 13 -51 38 -63 54 -25 35 -55
117 -63 173 -5 32 -3 37 14 37 11 0 30 -5 41 -11 18 -10 20 -9 14 7 -15 39
-35 143 -51 259 -8 66 -18 130 -20 142 -4 18 0 24 22 29 63 15 79 54 68 170
-7 82 -13 87 -66 52 -76 -51 -109 -180 -109 -424 0 -67 -3 -129 -6 -138 -3 -9
-28 -31 -55 -51 -66 -47 -67 -76 -4 -93 62 -16 114 -67 204 -197 42 -60 93
-127 113 -147 43 -43 126 -88 163 -88 31 0 31 0 -1 -47 -14 -21 -39 -63 -54
-93 -49 -95 -45 -93 -125 -80 -134 20 -228 85 -283 195 -34 69 -102 263 -97
277 3 8 19 19 35 25 40 15 38 36 -7 63 -53 31 -85 35 -112 13 -22 -18 -23 -21
-8 -49 8 -16 27 -69 42 -119 15 -49 38 -112 51 -138 l24 -48 -33 -29 c-38 -35
-43 -36 -58 -9 -9 17 -17 20 -43 15 -24 -5 -37 -2 -46 10 -12 13 -9 19 18 41
41 32 43 58 5 48 -16 -4 -40 -8 -55 -8 -33 -2 -34 -12 -14 -119 46 -237 169
-406 366 -501 l90 -43 -23 -22 c-51 -48 -178 -70 -251 -42 -36 13 -42 7 -27
-26 22 -48 -2 -48 -100 1 -94 47 -154 93 -165 127 -3 11 1 30 10 43 9 13 16
26 16 29 0 3 -19 6 -42 8 -35 2 -46 9 -65 37 -34 51 -29 124 13 165 15 16 16
22 3 74 -23 95 -17 275 15 434 15 75 26 152 24 172 l-3 37 -51 -26 c-86 -43
-128 -121 -169 -317 -35 -168 -46 -208 -55 -208 -4 0 -12 21 -16 48 -10 54
-32 64 -84 37 -164 -85 -271 -339 -272 -645 0 -200 39 -362 117 -485 28 -44
45 -58 135 -105 99 -52 104 -56 126 -106 13 -29 31 -54 40 -56 26 -5 -123
-178 -196 -226 -107 -72 -183 -76 -335 -21 -144 53 -186 56 -235 18 -32 -24
-21 -32 78 -54 74 -17 112 -41 112 -71 0 -24 -89 -10 -167 26 -154 71 -253
239 -253 429 0 97 2 98 92 36 44 -30 81 -55 82 -55 1 0 -4 39 -11 88 -17 109
-11 216 16 277 12 26 21 48 21 50 0 1 -13 0 -29 -3 -37 -5 -43 6 -29 52 9 27
9 39 0 48 -20 20 -29 -1 -45 -95 -9 -49 -24 -100 -33 -115 l-18 -27 -8 49
c-10 68 -24 79 -43 32 -15 -36 -22 -78 -44 -277 -10 -85 -36 -162 -54 -156 -6
2 -38 50 -73 107 l-64 104 0 -45 c0 -24 14 -101 31 -169 31 -125 45 -287 26
-307 -15 -14 -66 55 -84 114 -26 85 -23 279 5 396 42 168 92 225 141 160 l20
-28 1 30 c1 41 30 98 90 173 l50 64 -55 54 c-49 49 -75 68 -61 46 3 -5 0 -25
-6 -46 -11 -35 -51 -77 -131 -138 -43 -33 -83 -114 -104 -211 -21 -99 -12
-368 16 -487 25 -108 54 -190 87 -249 24 -43 24 -47 7 -56 -10 -5 -38 -32 -63
-59 -25 -26 -57 -55 -73 -62 -27 -15 -29 -14 -104 53 -154 137 -180 164 -209
215 -29 53 -29 55 -29 220 l-1 168 58 42 c71 51 158 160 158 197 0 6 -10 11
-23 11 -13 0 -31 6 -41 13 -17 12 -10 22 86 125 100 107 157 191 172 255 6 24
4 28 -11 23 -10 -2 -36 -9 -58 -15 -57 -15 -125 -61 -168 -113 -59 -71 -102
-179 -146 -363 -62 -255 -82 -324 -111 -390 l-26 -60 80 -155 c59 -112 95
-170 133 -209 50 -52 63 -68 45 -57 -14 8 -29 -8 -45 -46 -20 -47 -49 -50
-126 -12 -94 47 -198 198 -250 364 -33 103 -42 199 -31 301 17 151 49 195 90
127 l20 -33 0 83 c0 88 4 93 50 67 33 -19 60 -19 60 1 0 9 19 51 42 94 37 68
41 81 32 106 -7 21 -16 28 -30 26 -10 -2 -53 -6 -95 -9 -63 -4 -84 -2 -122 15
-26 12 -47 27 -47 34 0 7 19 31 42 55 23 23 39 45 36 49 -14 13 -78 -19 -110
-55 -20 -21 -50 -77 -72 -130 -39 -98 -65 -140 -196 -311 -97 -126 -110 -163
-117 -326 -8 -179 21 -302 134 -570 l55 -132 50 -6 c27 -4 83 -20 124 -36 84
-34 183 -53 200 -39 9 7 9 19 1 46 -10 31 -9 37 8 49 10 8 35 14 54 14 44 0
252 51 461 113 193 57 292 77 371 77 l62 0 52 58 c74 81 258 183 370 206 167
33 263 107 431 329 114 149 204 246 254 272 30 16 33 35 4 35 -8 0 -15 5 -15
10 -6 34 -3 35 81 36 105 1 177 17 254 58 97 50 156 114 286 306 88 131 141
198 194 247 68 63 74 72 84 126 27 135 114 241 297 362 78 52 115 82 115 95 0
10 16 69 35 131 20 62 38 146 42 188 3 42 12 82 20 89 7 7 13 19 13 26 0 8 17
16 40 19 55 7 67 19 110 112 56 121 59 121 118 23 118 -196 198 -379 228 -521
14 -69 18 -242 5 -286 -6 -21 -9 -15 -24 38 -55 199 -170 326 -275 306 l-34
-6 21 -23 c28 -30 27 -40 -14 -85 -19 -21 -35 -45 -35 -53 0 -9 12 -42 26 -74
14 -33 63 -156 109 -274 45 -118 94 -238 108 -267 15 -29 27 -54 27 -57 0 -16
-96 32 -155 77 -90 69 -137 136 -164 234 -26 96 -39 111 -72 84 l-24 -20 23
-43 c23 -45 28 -73 14 -82 -5 -3 -56 34 -114 83 -58 48 -113 91 -122 94 -19 7
-20 10 30 -68 17 -27 63 -113 102 -190 92 -181 88 -176 102 -141 9 25 12 27
27 15 33 -28 103 -215 103 -277 0 -19 -3 -20 -31 -10 -44 15 -75 -2 -88 -49
-6 -21 -11 -46 -11 -55 0 -22 -3 -22 -39 -4 -35 19 -68 62 -115 153 -21 39
-46 79 -57 89 -18 16 -19 16 -19 -12 1 -40 28 -97 94 -193 95 -139 109 -225
101 -631 l-6 -285 -34 -65 c-43 -83 -62 -151 -80 -275 -26 -178 -14 -429 26
-543 10 -28 8 -45 -10 -105 -31 -106 -49 -240 -71 -510 -11 -133 -20 -245 -20
-249 0 -5 13 -8 29 -8 24 0 61 -21 61 -35 0 -2 -12 -27 -27 -56 l-28 -53 -6
-286 c-6 -244 -10 -306 -33 -431 -71 -403 -172 -686 -484 -1359 -49 -107 -111
-256 -137 -330 -60 -169 -87 -224 -166 -330 -115 -157 -231 -284 -538 -590
-404 -403 -593 -549 -841 -654 -230 -98 -391 -129 -655 -129 -293 0 -362 15
-575 124 -481 246 -965 738 -1367 1389 -142 230 -366 607 -416 700 -226 419
-351 1081 -358 1890 l-1 135 -19 -60 c-58 -176 -62 -481 -15 -890 15 -121 29
-272 32 -335 6 -110 8 -120 59 -240 75 -178 102 -257 124 -363 16 -80 39 -133
171 -402 84 -170 195 -381 248 -469 117 -197 160 -287 217 -458 132 -397 137
-699 26 -1518 -16 -118 -28 -216 -26 -218 5 -5 83 183 105 253 32 106 57 228
75 361 20 150 29 548 18 807 -4 108 -5 197 -2 197 10 0 76 -55 190 -158 63
-57 138 -118 167 -135 41 -25 60 -46 90 -97 46 -81 193 -230 288 -292 207
-135 466 -226 774 -273 132 -20 402 -30 542 -20 104 7 108 8 121 33 12 25 17
27 83 27 83 1 118 18 234 117 132 113 169 138 204 138 18 0 41 7 52 15 10 8
28 15 39 15 26 0 131 107 275 280 154 186 266 299 319 322 63 29 69 15 33 -79
-53 -140 -120 -355 -147 -478 -46 -208 -66 -444 -46 -550 l7 -40 8 60 c4 33
29 182 56 330 27 149 54 305 60 349 10 68 16 83 46 113 45 45 59 80 78 204 21
136 67 232 171 354 137 161 166 207 271 420 104 213 179 340 227 384 24 22 28
23 44 9 36 -31 63 -40 79 -27 11 9 12 15 3 25 -6 8 -17 14 -23 14 -6 0 -28 5
-48 10 -63 18 -64 35 -8 141 27 52 76 163 109 246 91 231 111 273 132 273 23
0 34 -20 49 -95 15 -73 32 -95 76 -95 32 0 33 1 28 37 -9 62 -19 85 -78 183
-55 91 -66 123 -46 135 15 9 37 96 60 230 34 205 72 299 139 338 34 20 39 32
15 41 -25 10 -55 92 -64 178 -8 85 2 266 21 356 l11 54 72 -129 c93 -167 125
-213 210 -302 153 -158 306 -229 545 -252 114 -10 140 -21 141 -55 0 -19 -89
-122 -124 -143 -18 -11 -51 -23 -75 -27 -43 -7 -44 -7 -38 18 9 33 -11 41 -66
28 -23 -6 -87 -14 -142 -18 l-100 -7 97 -54 c53 -29 108 -66 123 -81 26 -27
26 -29 10 -54 -14 -21 -15 -29 -5 -41 7 -8 20 -15 28 -15 12 0 13 -3 4 -12 -6
-6 -50 -14 -97 -16 -73 -4 -85 -7 -85 -22 0 -37 26 -44 91 -25 47 15 62 16 72
6 19 -19 -14 -38 -140 -77 -126 -39 -157 -61 -74 -51 28 3 58 4 66 0 21 -8 18
-37 -6 -59 -23 -21 -73 -24 -176 -10 -59 8 -63 7 -88 -18 l-27 -27 -63 36
c-75 42 -95 44 -95 11 0 -51 90 -92 273 -126 135 -24 232 -52 202 -57 -73 -13
-114 -32 -182 -84 -41 -32 -80 -56 -87 -54 -6 2 -42 13 -79 25 -61 20 -101 22
-146 9 -9 -3 -22 16 -38 58 -26 67 -39 78 -67 57 -18 -12 -18 -14 2 -46 24
-38 93 -106 174 -171 l58 -45 -58 -53 c-63 -58 -141 -99 -188 -99 -37 0 -93
35 -113 72 -14 23 -13 34 3 104 l19 78 -23 18 c-12 10 -26 15 -31 12 -19 -11
-41 -118 -36 -171 6 -55 42 -146 75 -188 17 -22 20 -22 35 -8 22 22 55 11 107
-35 l43 -38 -79 -36 c-83 -39 -179 -68 -226 -68 -23 0 -34 9 -56 47 -37 63
-58 83 -87 83 -23 0 -25 -4 -25 -42 0 -24 -7 -65 -15 -92 -8 -26 -12 -52 -10
-57 14 -21 119 -49 188 -49 138 1 265 65 386 197 63 68 76 78 143 100 202 68
420 240 566 446 31 44 55 102 98 230 68 207 98 271 204 447 115 188 133 228
180 386 28 95 67 190 121 302 79 160 113 245 142 352 55 200 78 460 61 687
l-7 81 -81 53 -82 53 0 71 c0 101 -32 164 -130 253 -86 77 -127 133 -143 196
-10 42 -14 46 -68 66 -98 37 -182 50 -355 57 -190 7 -185 9 -151 -72 l16 -40
101 13 c147 19 290 12 352 -19 54 -27 94 -77 94 -119 0 -36 -12 -40 -130 -40
-54 0 -105 -3 -114 -6 -37 -14 2 -24 92 -24 126 0 146 -10 150 -72 3 -50 -11
-88 -58 -148 -27 -35 -54 -99 -46 -108 3 -2 17 -1 32 2 41 11 80 60 103 129
22 66 46 107 61 107 23 0 50 -80 50 -148 0 -84 -37 -169 -85 -191 -26 -13 -33
-12 -66 6 l-36 20 4 -46 c10 -116 -102 -174 -359 -188 -65 -3 -118 -10 -118
-14 0 -9 44 -18 110 -21 41 -3 45 -5 48 -30 3 -27 2 -28 -50 -28 -54 0 -138
-30 -138 -49 0 -6 18 -16 41 -22 33 -10 58 -10 123 0 205 32 263 26 292 -32
15 -28 14 -32 -3 -56 -46 -61 -94 -81 -278 -111 -125 -20 -150 -29 -119 -41
16 -6 16 -8 2 -8 -38 -2 -118 -23 -118 -32 0 -13 217 -11 282 2 296 60 460
234 602 643 6 17 8 17 29 4 118 -78 138 -397 37 -598 -28 -56 -61 -92 -92
-103 -26 -9 -23 40 7 136 25 79 30 114 19 155 -9 33 -24 27 -24 -11 0 -49 -27
-144 -58 -201 -38 -71 -140 -171 -257 -251 -118 -81 -175 -132 -175 -158 0
-40 103 2 234 96 58 43 87 57 112 57 l35 0 -17 -32 c-23 -45 -110 -127 -177
-167 -140 -83 -348 -126 -562 -118 -136 6 -145 0 -39 -28 73 -19 152 -19 329
0 160 17 185 18 185 8 0 -18 -100 -73 -160 -89 -80 -21 -286 -24 -382 -5 -58
11 -71 18 -94 49 -15 19 -69 79 -120 134 -80 84 -154 185 -154 211 0 4 6 7 14
7 8 0 27 5 42 10 l26 10 -45 40 c-25 22 -49 52 -55 68 -12 35 2 72 27 72 23 0
51 -25 51 -45 0 -15 27 -45 40 -45 4 0 11 11 14 25 13 53 -40 123 -133 176
-23 12 -41 27 -41 33 0 29 44 95 74 111 l34 18 -29 41 c-60 82 -74 196 -55
439 l8 109 34 -33 c19 -18 61 -79 93 -134 77 -132 147 -195 165 -149 3 9 6 17
6 19 0 2 -22 30 -50 61 -54 62 -54 62 -41 83 8 12 14 12 41 1 52 -22 60 1 17
53 -19 24 -50 68 -68 98 -33 57 -92 189 -83 189 3 0 22 -12 42 -27 31 -24 35
-25 28 -8 -56 146 -58 373 -5 559 9 34 13 38 37 33 15 -2 34 -7 42 -11 11 -5
20 6 33 43 9 26 46 99 82 161 35 62 72 133 81 157 14 35 30 52 85 89 149 99
248 290 299 577 52 297 67 677 36 901 -43 299 -150 604 -315 894 -27 48 -52
103 -56 122 -12 58 -31 80 -70 80 -38 0 -58 -21 -71 -75 -15 -67 -20 -68 -71
-14 -45 49 -46 50 -35 88 17 54 15 178 -3 255 -18 77 -70 231 -114 335 -17 41
-31 75 -31 77 0 2 11 4 25 4 34 0 53 33 61 105 8 82 22 123 46 136 11 6 22 8
25 6 2 -3 -3 -40 -12 -84 -20 -93 -11 -133 29 -133 21 0 28 9 47 58 32 85 30
211 -5 317 -36 105 -98 213 -167 288 l-55 61 -67 -32 c-36 -18 -76 -32 -89
-32 -34 0 -63 23 -55 44 5 13 21 16 83 16 69 0 75 2 63 16 -11 14 -26 15 -84
10 -178 -17 -193 -18 -214 -7 -11 7 -21 10 -21 8z m385 -122 l60 -24 -3 -75
c-2 -44 2 -84 8 -96 11 -20 10 -21 -12 -15 -60 18 -208 206 -177 226 24 15 61
10 124 -16z m36 -982 c48 -51 62 -92 67 -192 3 -55 -1 -117 -8 -150 -18 -83
-77 -188 -123 -222 -36 -26 -66 -31 -52 -9 11 17 -22 75 -68 123 l-47 48 16
31 c9 17 29 49 45 71 45 62 24 70 -61 24 -57 -31 -73 -36 -90 -27 -20 11 -20
11 0 49 11 22 63 79 116 128 52 48 107 107 121 130 28 48 37 47 84 -4z m-595
-97 c52 -52 43 -106 -18 -106 -24 0 -28 4 -28 28 0 16 -7 37 -15 48 -8 10 -15
29 -15 42 0 34 36 28 76 -12z m-28 -149 c23 -21 82 -108 82 -121 0 -12 -82 35
-107 62 -20 22 -53 83 -53 98 0 9 57 -20 78 -39z m240 -59 c12 -12 17 -58 7
-58 -3 0 -21 7 -40 14 -45 19 -50 56 -7 56 15 0 33 -5 40 -12z m706 -277 c2 8
6 21 8 29 7 25 56 -36 100 -125 22 -44 46 -87 54 -96 11 -12 11 -19 1 -32 -15
-20 -26 -13 -56 36 -23 37 -41 48 -41 25 0 -28 23 -94 38 -110 14 -16 14 -18
-2 -18 -33 0 -79 64 -143 199 -74 154 -76 188 -8 121 31 -31 46 -39 49 -29z
m236 -361 c19 -10 19 -11 -1 -31 -27 -27 -39 -62 -39 -111 l0 -41 -24 22 c-14
14 -30 47 -40 84 -14 57 -14 63 1 75 20 15 77 16 103 2z m18 -317 c2 -41 0
-53 -11 -53 -20 0 -33 19 -42 57 -8 40 0 55 28 51 19 -3 22 -10 25 -55z
m-1713 -168 c43 -43 97 -84 138 -105 37 -19 67 -38 67 -41 0 -13 -68 -39 -101
-39 -113 0 -263 173 -276 319 l-5 56 53 -60 c29 -33 84 -92 124 -130z m31 113
c27 -32 64 -86 64 -94 0 -4 -19 -4 -42 -1 -82 11 -139 117 -63 117 12 0 30
-10 41 -22z m-818 -125 c3 -33 -19 -59 -43 -49 -20 7 -19 42 3 65 23 26 36 21
40 -16z m2560 -30 c-25 -42 -28 -94 -14 -259 10 -113 -1 -169 -35 -179 -30
-10 -34 0 -19 44 10 33 10 53 -4 127 -20 111 -21 206 -1 244 17 33 52 60 77
60 16 0 15 -3 -4 -37z m-1531 1 c8 -21 -21 -44 -54 -44 -27 0 -27 1 -11 35 13
29 55 35 65 9z m-889 -63 c24 -43 29 -90 10 -109 -15 -15 -54 -16 -63 -2 -18
29 1 150 23 150 5 0 18 -17 30 -39z m2064 2 c17 -15 27 -93 11 -93 -21 0 -43
37 -43 72 0 42 5 46 32 21z m-2198 -177 c44 -94 57 -204 35 -292 -10 -39 -9
-47 7 -65 10 -11 34 -50 54 -87 28 -51 48 -74 86 -99 84 -54 114 -85 120 -124
10 -58 -13 -72 -105 -67 -90 6 -151 33 -230 104 -91 82 -148 189 -158 299 -5
57 -4 64 16 74 19 10 22 8 32 -16 31 -80 75 -163 109 -208 36 -46 144 -146
124 -114 -5 8 -37 57 -72 108 -168 252 -201 436 -99 548 19 22 22 22 39 6 10
-9 29 -39 42 -67z m351 -7 c26 -40 55 -129 55 -168 0 -24 -1 -24 -40 14 -43
42 -74 110 -85 190 l-8 50 28 -25 c15 -14 38 -41 50 -61z m-249 -117 c6 -4 18
-21 27 -38 18 -34 40 -47 67 -39 16 5 16 1 7 -33 -11 -42 -1 -64 68 -161 33
-45 35 -111 4 -111 -96 0 -185 141 -196 313 -6 74 -2 86 23 69z m473 -66 c78
-16 114 -34 130 -65 9 -16 6 -19 -28 -25 -80 -13 -179 14 -201 53 -17 32 -13
63 8 57 9 -3 50 -12 91 -20z m410 -34 c-15 -71 -46 -114 -94 -130 -64 -21 -68
-14 -34 53 16 33 39 70 51 82 19 21 79 55 85 49 2 -2 -2 -26 -8 -54z m-466
-187 c92 -75 142 -82 119 -16 -14 39 -4 39 32 2 55 -58 14 -101 -95 -101 -97
0 -174 51 -186 124 l-6 36 41 0 c33 0 50 -8 95 -45z m-1223 -260 c0 -21 -5
-25 -30 -25 -26 0 -29 3 -28 25 2 20 8 25 30 25 23 0 28 -4 28 -25z m-1122
-68 c8 -9 7 -29 -5 -73 -21 -80 -12 -338 16 -479 27 -131 28 -129 -9 -110 -41
21 -93 95 -121 174 -21 57 -24 84 -24 201 0 127 2 139 28 195 44 93 86 127
115 92z m4012 -74 c-1 -18 -58 -76 -68 -69 -18 11 -14 30 8 54 20 21 60 31 60
15z m-2933 -330 c59 -60 118 -127 131 -150 l23 -42 -28 -6 c-15 -3 -60 -15
-100 -25 -100 -28 -137 -25 -186 13 -16 14 -16 18 9 83 21 53 27 88 28 151 1
46 4 83 8 83 4 0 56 -48 115 -107z m-99 -391 c2 -14 -6 -27 -23 -38 -25 -16
-27 -16 -43 1 -14 14 -14 18 -3 22 7 3 21 14 30 23 20 23 35 20 39 -8z m2638
-129 c4 -15 -1 -66 -11 -114 -9 -48 -16 -105 -13 -128 4 -45 -8 -53 -34 -23
-26 30 -28 63 -8 166 11 56 20 111 20 124 0 20 3 21 20 12 11 -6 23 -23 26
-37z m1174 -1182 c0 -18 -81 -99 -105 -103 -21 -4 -25 -1 -25 18 0 35 41 75
86 84 21 4 40 8 42 9 1 0 2 -3 2 -8z m-420 -1980 c0 -13 -50 -71 -61 -71 -21
0 -20 32 1 56 23 24 60 33 60 15z m-490 -461 c0 -26 -34 -60 -60 -60 -26 0
-60 34 -60 60 0 18 7 20 60 20 53 0 60 -2 60 -20z"/>
<path d="M7450 12555 c0 -2 24 -16 52 -30 76 -38 181 -119 239 -184 80 -89
112 -150 134 -258 7 -37 -10 -46 -19 -10 -11 47 -133 215 -211 292 -93 93
-164 138 -253 160 -93 24 -96 14 -8 -28 144 -68 268 -185 331 -310 31 -61 54
-151 43 -163 -3 -2 -40 46 -84 108 -105 151 -168 213 -240 234 -32 9 -67 13
-82 9 l-27 -7 40 -20 c52 -27 66 -39 141 -127 53 -62 64 -80 64 -111 0 -51 26
-132 71 -222 42 -84 83 -200 92 -260 5 -34 3 -38 -16 -38 -11 0 -33 12 -49 27
-15 14 -31 24 -34 20 -8 -8 47 -347 57 -347 18 0 74 80 113 163 49 102 75 132
133 152 25 9 31 14 17 15 -26 0 -40 16 -49 53 l-7 27 57 0 58 0 -6 113 c-6
131 -31 228 -87 340 -76 152 -195 276 -332 347 -73 38 -138 64 -138 55z"/>
<path d="M7906 12495 c-7 -18 45 -48 76 -43 27 4 36 28 11 28 -10 0 -27 7 -37
15 -25 19 -42 19 -50 0z"/>
<path d="M4710 12333 c-87 -9 -247 -46 -342 -79 -221 -76 -440 -202 -722 -418
-98 -74 -148 -106 -167 -106 -60 0 -257 -185 -395 -372 -258 -350 -458 -812
-544 -1256 -18 -94 -52 -223 -85 -322 -62 -186 -85 -284 -85 -365 0 -48 3 -56
17 -53 23 4 43 45 43 89 0 34 32 91 43 79 2 -3 -8 -95 -24 -205 -69 -488 -59
-705 40 -816 l38 -43 12 35 c12 33 13 33 22 11 16 -43 22 -157 9 -181 -10 -21
-8 -26 30 -58 89 -77 118 -176 130 -458 11 -230 14 -263 37 -346 14 -52 14
-60 -1 -91 -24 -50 -102 -122 -171 -157 -116 -58 -286 -91 -480 -92 -97 0 -99
-1 -75 -17 14 -9 54 -39 89 -65 l64 -49 51 29 c50 28 53 28 224 28 l174 0 14
34 c8 19 56 77 108 130 51 53 107 116 125 140 30 43 31 43 31 16 0 -16 -12
-48 -26 -72 -14 -25 -23 -47 -20 -50 14 -15 166 102 166 127 0 7 -14 25 -31
41 -22 21 -30 36 -27 56 3 26 7 28 53 33 l50 5 3 102 c3 116 6 111 -90 140
l-51 15 6 58 c4 53 29 110 47 110 4 0 10 -12 13 -28 3 -15 28 -53 56 -85 28
-32 58 -71 65 -86 33 -63 48 -183 52 -421 7 -382 12 -412 59 -360 17 18 17 39
12 287 -3 148 -13 331 -21 408 -44 391 -49 463 -50 650 -1 217 13 315 61 445
25 67 73 158 103 197 15 20 16 29 3 108 l-14 87 54 66 c30 37 83 99 118 137
132 145 248 299 234 313 -12 12 -96 -62 -220 -193 -159 -168 -204 -198 -292
-193 l-58 3 43 13 c23 7 42 16 42 21 0 4 -11 18 -25 31 -28 26 -32 52 -11 69
18 15 51 0 80 -36 10 -14 28 -28 40 -32 18 -7 25 -1 48 42 47 85 105 151 221
253 246 215 331 315 363 424 7 24 6 24 -22 -6 -16 -17 -71 -52 -122 -79 -73
-37 -92 -51 -86 -64 17 -41 15 -46 -31 -65 -49 -20 -112 -78 -239 -220 -73
-81 -133 -125 -173 -126 -23 0 -14 37 32 127 51 103 136 206 256 313 46 41
114 103 152 137 64 60 70 63 118 63 63 0 108 19 142 59 28 34 36 91 17 121 -8
13 -13 13 -40 -3 -19 -12 -65 -22 -118 -27 -49 -4 -105 -15 -125 -24 -31 -12
-37 -20 -37 -44 0 -16 -10 -44 -22 -62 -26 -38 -131 -106 -137 -89 -2 6 2 16
8 22 6 6 11 19 11 29 0 17 -3 17 -40 -4 -124 -70 -258 -202 -462 -453 -58 -72
-114 -137 -123 -145 -17 -14 -18 -12 -12 38 4 34 29 100 71 190 59 124 95 228
96 272 0 8 21 31 47 50 25 19 128 114 227 210 100 96 215 205 256 241 86 76
243 190 289 209 63 26 23 40 -54 19 -55 -16 -126 -63 -232 -157 -161 -141
-233 -178 -307 -155 -35 11 -35 10 -86 -48 -46 -53 -80 -74 -80 -51 0 20 109
162 183 239 85 88 164 136 242 148 l40 6 -50 -25 c-69 -35 -122 -82 -173 -155
-24 -33 -41 -61 -38 -61 3 0 67 47 143 103 143 107 313 226 418 290 l60 36
-35 1 c-26 0 -58 -14 -115 -50 -43 -27 -88 -53 -98 -56 -20 -6 -77 13 -77 26
0 5 23 24 50 44 71 51 68 74 -6 41 -65 -29 -114 -63 -261 -181 -138 -111 -206
-145 -298 -152 -69 -4 -71 -5 -116 -53 -44 -46 -80 -62 -94 -39 -13 22 30 88
97 151 66 59 72 69 71 102 -1 41 18 57 85 72 31 6 72 39 72 57 0 5 -12 13 -26
19 -15 5 -25 12 -22 14 2 3 18 -1 35 -7 43 -16 80 2 137 67 25 30 46 57 46 60
0 14 -47 -9 -75 -36 -24 -23 -34 -26 -43 -17 -7 7 -12 17 -12 24 0 22 128 150
176 176 46 25 162 54 172 43 8 -8 -28 -43 -75 -73 -48 -30 -62 -57 -41 -78 11
-12 26 -1 98 72 140 142 308 268 610 459 85 53 160 102 165 107 27 25 -99 -36
-268 -130 -129 -72 -224 -104 -292 -100 l-48 3 59 41 c32 23 111 67 174 99
119 59 200 111 200 128 0 19 -77 -6 -150 -49 -71 -42 -122 -55 -135 -34 -9 14
149 134 235 179 42 22 103 47 137 57 l61 17 6 57 c5 40 17 73 42 113 31 50 39
57 68 57 40 0 96 18 116 36 8 8 15 24 15 37 0 20 8 23 90 37 103 18 135 32
135 60 0 17 -6 20 -47 18 -27 0 -64 -3 -83 -5z m-430 -322 c0 -37 -44 -74
-145 -121 -57 -26 -106 -53 -109 -59 -12 -19 -26 -12 -26 14 0 51 83 120 194
161 75 28 86 29 86 5z m-369 -249 c-18 -33 -96 -98 -165 -137 -63 -35 -67 -39
-50 -52 23 -17 45 -9 100 32 46 36 81 51 92 41 13 -14 -29 -64 -109 -128 -46
-37 -95 -85 -109 -107 -21 -34 -30 -40 -61 -41 -36 0 -64 15 -71 39 -2 7 -80
-71 -183 -184 -303 -333 -385 -445 -482 -658 -34 -77 -74 -154 -88 -173 -28
-37 -77 -85 -82 -80 -11 11 51 178 116 311 143 295 222 405 392 543 97 78 138
120 210 214 177 232 286 327 438 383 52 20 64 19 52 -3z m-528 -192 c-1 -20
-12 -43 -29 -61 -29 -31 -74 -39 -74 -14 0 19 82 114 95 111 6 -2 9 -18 8 -36z
m-273 -1039 c20 -39 10 -61 -60 -130 -38 -37 -70 -73 -70 -80 0 -9 -5 -9 -20
-1 -27 14 -26 59 2 96 30 41 121 134 130 134 4 0 12 -9 18 -19z m106 -295
c-13 -54 -131 -153 -171 -144 -14 3 -12 11 11 53 21 41 24 55 16 76 -9 27 -9
27 46 31 44 4 59 10 71 28 15 22 15 22 24 2 5 -11 7 -32 3 -46z m-225 -347
c-13 -61 -34 -89 -68 -89 -32 0 -29 16 19 93 49 76 66 75 49 -4z m364 -26
c-13 -53 -50 -108 -85 -125 -18 -10 -36 -16 -38 -13 -2 2 9 31 24 66 18 41 38
68 58 80 42 25 49 24 41 -8z m-152 -245 c-13 -40 -29 -84 -35 -96 -12 -24 -65
-58 -75 -48 -7 7 15 104 33 143 19 38 58 73 84 73 15 0 14 -7 -7 -72z m-63
-193 c0 -42 -37 -80 -85 -87 -22 -3 -23 19 -3 58 18 37 88 60 88 29z m-452
-260 c101 -202 167 -399 204 -605 22 -127 30 -391 14 -515 -9 -70 -9 -70 -22
-39 -7 17 -47 157 -89 310 -87 320 -140 483 -196 604 l-40 84 16 109 c16 122
35 191 46 180 4 -4 35 -62 67 -128z m-198 -94 c12 -48 21 -261 10 -261 -18 0
-53 64 -58 105 -2 24 -1 83 3 130 6 72 9 84 21 74 8 -6 18 -28 24 -48z m506
-1492 c13 -21 -18 -59 -48 -59 -33 0 -34 7 -11 54 13 29 19 33 34 25 10 -5 21
-14 25 -20z"/>
<path d="M8670 12050 c-8 -5 -12 -10 -10 -12 43 -32 134 -78 152 -78 44 0 38
12 -25 50 -74 45 -97 53 -117 40z"/>
<path d="M7387 12043 c-4 -3 3 -11 15 -17 13 -6 38 -39 56 -72 31 -55 67 -92
79 -80 9 9 -60 137 -85 157 -25 19 -53 25 -65 12z"/>
<path d="M6407 12033 c-4 -3 -7 -17 -7 -30 0 -20 5 -23 40 -23 33 0 40 3 40
20 0 28 -54 53 -73 33z"/>
<path d="M8685 11960 c-3 -5 0 -10 8 -10 7 0 23 -13 35 -30 33 -45 87 -37 63
9 -16 30 -93 52 -106 31z"/>
<path d="M4460 11935 c-10 -12 -7 -17 14 -27 33 -14 79 -1 84 25 3 14 -4 17
-41 17 -27 0 -49 -6 -57 -15z"/>
<path d="M6116 11861 c-10 -16 5 -41 24 -41 28 0 36 21 15 37 -22 15 -32 16
-39 4z"/>
<path d="M4271 11786 c-16 -29 -11 -60 11 -64 22 -4 41 33 34 64 -8 31 -29 31
-45 0z"/>
<path d="M7407 11743 c8 -50 32 -125 84 -258 36 -95 42 -121 43 -190 1 -44 -3
-96 -7 -115 -8 -34 -7 -34 9 -15 66 80 78 228 30 370 -15 44 -39 100 -53 124
-28 48 -90 121 -104 121 -4 0 -5 -17 -2 -37z"/>
<path d="M6113 11744 c-3 -8 1 -22 9 -31 13 -12 20 -13 38 -3 l23 12 -24 19
c-30 23 -38 23 -46 3z"/>
<path d="M6897 11702 c-12 -2 6 -19 58 -53 41 -27 96 -69 121 -94 66 -67 104
-161 72 -181 -10 -7 -33 14 -95 89 -22 26 -63 37 -63 17 0 -6 18 -33 40 -61
80 -102 127 -243 102 -309 -9 -24 -9 -23 -22 15 -33 106 -144 275 -219 334
-46 36 -117 70 -147 71 -17 0 0 -22 75 -97 144 -147 211 -288 211 -448 0 -156
-24 -185 -79 -95 -17 28 -36 48 -41 45 -6 -4 -3 -17 8 -33 42 -60 55 -162 28
-212 -14 -24 -16 -20 -78 110 -71 150 -112 204 -175 232 -40 18 -114 17 -112
-1 0 -3 21 -19 47 -36 117 -76 191 -271 192 -510 1 -101 0 -100 60 -2 41 65
82 90 141 83 l46 -5 17 59 c9 33 16 80 16 105 0 43 3 48 76 120 l77 74 -5 46
c-5 38 -3 45 12 45 9 0 29 9 44 21 46 36 58 74 64 194 l5 111 -45 17 c-56 22
-106 70 -201 194 -42 54 -92 109 -111 121 -37 25 -90 40 -119 34z"/>
<path d="M6773 11689 c-9 -9 2 -20 44 -45 64 -39 64 -39 56 -16 -22 60 -71 90
-100 61z"/>
<path d="M7225 11679 c104 -137 150 -199 173 -236 32 -51 42 -54 42 -14 0 46
-16 77 -67 133 -58 61 -179 157 -148 117z"/>
<path d="M7430 11342 c0 -21 7 -32 25 -40 34 -16 33 -16 27 16 -10 55 -52 74
-52 24z"/>
<path d="M6690 11264 c0 -27 166 -261 178 -249 5 5 -37 85 -69 130 -41 58
-108 132 -109 119z"/>
<path d="M7794 11193 c-80 -101 -158 -261 -189 -390 -21 -85 -18 -253 5 -293
14 -25 14 -24 22 27 4 29 26 93 48 143 23 50 45 117 51 150 6 41 17 68 35 87
33 35 57 83 78 152 21 71 20 114 -2 141 l-17 22 -31 -39z"/>
<path d="M3761 11154 c-64 -17 -106 -45 -126 -84 -17 -34 -19 -60 -5 -60 37 0
146 74 185 126 29 38 25 39 -54 18z"/>
<path d="M6442 11053 c20 -21 54 -61 75 -90 21 -28 50 -61 65 -72 19 -15 12 1
-29 62 -68 101 -101 137 -127 137 -17 0 -15 -5 16 -37z"/>
<path d="M3437 10938 c-25 -18 -74 -57 -108 -87 -63 -53 -128 -90 -160 -91
-14 0 -16 -8 -12 -44 3 -26 1 -46 -6 -50 -6 -4 -11 -12 -11 -17 0 -6 14 3 31
21 17 17 75 56 128 87 106 62 162 110 186 159 30 63 18 69 -48 22z"/>
<path d="M6197 10817 c124 -92 203 -220 211 -344 7 -114 -2 -117 -54 -17 -91
175 -154 248 -255 300 l-53 26 79 -85 c140 -148 201 -281 193 -420 -3 -61 -8
-81 -36 -123 -31 -49 -42 -106 -23 -118 12 -8 61 64 120 174 l50 95 85 3 86 3
0 30 c0 23 13 44 50 83 28 29 50 58 50 65 0 19 -56 137 -111 233 -46 80 -53
88 -68 75 -26 -23 -46 -26 -90 -15 -23 6 -44 8 -47 5 -3 -3 12 -30 35 -59 22
-30 50 -76 62 -103 26 -59 36 -158 19 -200 l-12 -30 -15 60 c-35 149 -147 312
-257 376 -76 43 -86 35 -19 -14z m368 -167 c21 -24 38 -110 21 -110 -32 1 -76
61 -76 104 0 32 29 35 55 6z"/>
<path d="M5997 10503 c-11 -10 -8 -35 3 -28 20 12 60 -42 60 -82 1 -58 17
-116 37 -131 29 -21 28 8 -1 101 -37 119 -72 168 -99 140z"/>
<path d="M5546 10471 c-3 -5 9 -25 28 -46 42 -45 58 -30 20 20 -27 36 -39 42
-48 26z"/>
<path d="M5800 10476 c0 -1 21 -16 48 -33 33 -20 56 -45 77 -84 27 -50 30 -63
33 -169 3 -107 -10 -204 -44 -330 -11 -42 142 201 160 253 21 62 20 80 -4 102
-11 10 -49 62 -84 115 -72 110 -114 150 -157 150 -16 0 -29 -2 -29 -4z"/>
<path d="M6166 10420 c5 -14 8 -87 6 -163 -3 -150 5 -168 34 -71 29 102 16
205 -32 245 -15 13 -16 12 -8 -11z"/>
<path d="M7990 10391 c0 -16 147 -148 173 -155 14 -3 36 -2 49 3 l23 9 -29 11
c-15 6 -59 41 -95 76 -49 47 -75 65 -94 65 -15 0 -27 -4 -27 -9z"/>
<path d="M4922 10211 c-46 -12 -51 -21 -13 -21 47 0 177 -46 242 -85 74 -45
154 -132 185 -200 28 -60 47 -165 37 -205 -6 -28 -1 -24 44 35 40 52 65 103
61 121 -4 22 -163 201 -227 257 -78 67 -144 97 -227 102 -38 2 -84 0 -102 -4z"/>
<path d="M5430 10202 c0 -4 10 -12 22 -17 13 -6 41 -37 64 -70 22 -33 48 -61
57 -63 11 -2 -1 23 -39 77 -44 64 -60 81 -80 81 -13 0 -24 -3 -24 -8z"/>
<path d="M5870 10097 c0 -73 -17 -119 -49 -137 -28 -15 -31 -13 -31 19 0 16
-5 42 -10 56 -9 24 -11 25 -26 10 -9 -9 -23 -14 -30 -11 -8 3 -21 9 -29 12
-12 5 -15 -4 -15 -52 0 -82 -14 -123 -65 -200 -50 -74 -50 -74 -32 -74 33 0
81 41 125 105 51 76 79 90 113 59 10 -9 20 -15 22 -13 1 2 15 43 30 90 30 95
34 156 12 185 -13 17 -14 13 -15 -49z"/>
<path d="M6490 9607 c0 -14 -7 -41 -15 -60 -17 -42 -19 -67 -5 -67 6 0 10 9
10 20 0 29 23 34 60 15 32 -16 32 -16 25 7 -7 25 -53 95 -67 104 -4 3 -8 -6
-8 -19z"/>
<path d="M6735 9531 c-7 -23 4 -71 16 -71 12 0 12 77 0 85 -5 3 -12 -3 -16
-14z"/>
<path d="M6565 9356 c-12 -47 2 -198 24 -261 29 -83 75 -155 154 -241 75 -80
91 -87 144 -54 25 15 36 32 51 82 l18 63 76 -3 c50 -3 78 0 83 8 10 16 2 21
-52 31 -26 5 -92 29 -147 54 -87 39 -102 43 -115 31 -12 -13 -12 -21 3 -60 36
-93 -15 -118 -89 -43 -45 45 -52 65 -90 266 -9 47 -25 101 -35 120 l-18 36 -7
-29z"/>
<path d="M5456 8974 c-8 -20 -8 -93 0 -133 11 -56 24 -22 24 65 0 78 -10 106
-24 68z"/>
<path d="M6437 8952 c-9 -10 -17 -35 -17 -54 0 -61 80 -110 130 -78 13 8 12
11 -4 23 -11 8 -31 38 -45 68 -29 60 -40 67 -64 41z"/>
<path d="M5650 8836 c0 -54 1 -56 28 -56 26 0 27 2 26 52 -1 49 -3 53 -28 56
-25 3 -26 2 -26 -52z"/>
<path d="M9530 8517 c-13 -27 -20 -32 -50 -31 -19 0 -44 2 -54 5 -16 3 -28
-16 -76 -127 -73 -168 -107 -266 -120 -349 -17 -105 10 -213 66 -266 l25 -23
-17 39 c-9 22 -19 78 -21 125 -5 97 14 174 63 257 l29 48 3 -47 c2 -25 10 -52
18 -58 12 -11 14 -6 14 31 0 48 25 109 89 216 48 81 68 148 55 185 l-9 26 -15
-31z"/>
<path d="M5460 8529 c0 -35 75 -146 111 -165 23 -11 29 -11 39 1 9 11 -4 29
-69 94 -45 44 -81 75 -81 70z"/>
<path d="M3758 7974 c-42 -7 -107 -26 -145 -40 -71 -28 -108 -52 -63 -41 79
20 209 29 340 24 211 -9 294 -30 780 -200 102 -35 201 -68 220 -71 l35 -7 -59
54 c-144 134 -399 241 -666 282 -118 18 -339 18 -442 -1z"/>
<path d="M2120 7913 c-106 -43 -250 -132 -262 -162 -16 -40 -22 -229 -9 -296
13 -73 37 -96 158 -155 159 -78 334 -101 421 -56 44 23 37 27 -18 15 -25 -6
-77 -9 -116 -7 -132 8 -238 79 -296 196 -28 57 -33 76 -33 142 1 64 5 83 30
130 34 62 95 113 158 132 23 7 86 13 139 13 l97 0 -22 23 c-55 60 -141 68
-247 25z"/>
<path d="M8100 7919 c-375 -22 -592 -74 -787 -191 -57 -34 -183 -149 -183
-168 0 -5 17 -10 39 -10 41 0 89 27 151 84 62 58 103 84 185 116 187 76 402
107 669 96 94 -3 183 -9 199 -12 20 -5 27 -2 27 8 0 25 -54 67 -100 77 -25 6
-47 10 -50 9 -3 -1 -70 -5 -150 -9z"/>
<path d="M1566 7453 c-46 -46 -80 -111 -104 -196 -15 -54 -17 -104 -14 -375
l2 -313 -31 -70 c-26 -62 -30 -78 -24 -123 22 -162 111 -340 263 -526 69 -84
68 -95 -8 -95 -77 0 -119 51 -175 216 -13 36 -30 79 -39 95 -17 28 -17 28 -11
-46 14 -186 64 -375 146 -549 35 -74 38 -89 28 -112 -8 -21 -8 -37 2 -66 6
-21 13 -43 15 -49 1 -7 20 -17 41 -24 73 -22 93 -33 93 -47 0 -9 14 -41 31
-72 26 -45 42 -61 83 -81 68 -34 123 -105 175 -225 59 -138 123 -275 129 -275
2 0 13 11 24 25 33 43 36 39 83 -119 30 -101 57 -136 106 -136 l31 0 -31 35
c-82 94 -4 110 222 45 161 -46 242 -52 294 -20 17 10 36 28 42 38 9 17 6 21
-32 31 -23 7 -105 22 -183 35 -131 22 -214 47 -214 66 0 20 54 69 92 85 34 14
69 17 171 16 106 -2 134 1 171 17 40 18 68 42 49 42 -195 10 -329 22 -371 35
-60 18 -127 73 -136 110 -6 22 -12 25 -50 25 -75 0 -126 28 -126 69 0 6 18 11
39 11 50 0 59 14 26 36 -33 21 -18 34 40 34 22 0 50 3 63 6 l22 6 -25 24 c-14
13 -25 32 -25 44 0 26 -2 25 -55 -6 -51 -29 -81 -28 -103 4 -14 22 -14 22 36
22 51 0 79 17 69 43 -3 8 -46 20 -108 31 -208 35 -329 79 -389 141 l-32 33
113 1 c65 0 129 -5 149 -11 l35 -12 -34 -6 c-50 -7 -48 -24 4 -38 50 -13 105
-16 105 -5 0 4 -9 17 -21 29 l-21 22 48 8 c60 9 126 -6 231 -52 55 -25 88 -34
100 -29 14 6 10 10 -20 15 -76 14 -61 34 45 57 44 9 90 25 102 35 18 15 18 17
4 18 -23 0 -31 16 -19 39 14 26 -5 29 -234 40 -221 11 -243 17 -465 121 -185
86 -174 83 -215 59 -19 -11 -39 -18 -45 -14 -10 6 -14 48 -5 56 2 3 69 -1 147
-8 82 -8 189 -12 250 -8 124 6 167 17 98 25 -65 7 -46 26 21 22 36 -2 59 1 64
8 11 18 3 21 -87 36 -237 40 -437 140 -575 287 -106 113 -156 230 -167 388 -6
70 -4 81 6 65 7 -10 42 -55 77 -100 73 -94 100 -146 108 -216 l6 -50 110 -67
c144 -87 235 -124 316 -131 89 -7 73 9 -47 49 -53 17 -110 38 -127 47 -35 17
-85 61 -85 75 0 19 97 -2 170 -37 73 -35 133 -46 145 -26 3 6 -3 10 -14 10
-33 0 -51 11 -51 32 0 18 4 20 38 14 182 -30 262 -32 302 -6 13 9 13 11 0 20
-13 8 -12 11 5 24 30 23 9 32 -108 45 -125 14 -173 41 -136 78 21 21 -30 21
-71 0 -39 -19 -44 -19 -75 -4 -18 9 -47 33 -65 55 -30 38 -33 39 -107 45 -97
7 -180 47 -256 121 -92 91 -148 237 -132 345 12 86 15 92 37 80 29 -15 46 -66
57 -164 10 -82 29 -135 51 -135 5 0 34 -9 64 -20 51 -20 56 -24 71 -70 16 -48
18 -50 78 -69 84 -25 167 -36 167 -21 0 26 67 40 157 34 160 -12 269 31 528
207 90 62 168 110 171 106 12 -12 -5 -52 -46 -106 -44 -58 -46 -67 -26 -94 13
-17 18 -9 61 80 129 270 159 399 119 516 -19 55 -29 59 -38 16 -4 -19 -29 -54
-68 -93 -71 -71 -128 -97 -263 -123 -153 -29 -633 5 -618 44 8 19 -20 48 -102
103 -38 26 -83 59 -98 74 -15 14 -30 26 -32 26 -7 0 27 -104 47 -144 43 -84
150 -162 276 -202 67 -21 271 -29 372 -15 116 17 238 54 331 101 43 22 79 37
79 35 0 -22 -88 -145 -144 -201 -79 -78 -148 -117 -241 -136 -72 -14 -71 -14
-56 -32 10 -12 7 -17 -16 -29 -35 -18 -173 -37 -267 -37 -325 1 -636 324 -636
660 l0 89 51 58 c56 64 83 109 74 123 -10 16 -20 12 -59 -27z m226 -1290 c18
-16 25 -53 11 -53 -5 1 -28 11 -53 23 -35 17 -46 28 -48 50 l-3 28 37 -16 c21
-9 46 -23 56 -32z m848 -783 c0 -30 -1 -30 -55 -30 -51 0 -55 2 -55 23 0 33 7
37 62 37 47 0 48 -1 48 -30z m-460 -520 c13 -13 20 -33 20 -56 0 -34 -1 -35
-32 -32 -27 2 -35 9 -46 40 -8 21 -12 44 -9 53 9 21 43 19 67 -5z"/>
<path d="M9237 7426 c-9 -22 29 -64 64 -71 20 -5 38 -1 55 10 l26 17 -30 18
c-16 10 -33 23 -36 29 -10 16 -73 14 -79 -3z"/>
<path d="M6506 7083 c-73 -130 -122 -253 -157 -392 -35 -138 -36 -145 -9 -131
35 19 51 56 67 157 16 104 29 135 99 248 63 102 91 193 65 210 -5 3 -34 -39
-65 -92z"/>
<path d="M1625 7098 c14 -64 79 -172 145 -240 78 -80 125 -99 192 -78 l43 12
-61 27 c-74 34 -117 72 -207 181 -39 47 -82 95 -95 108 l-24 23 7 -33z"/>
<path d="M5733 7038 c4 -35 22 -113 41 -175 46 -148 52 -206 32 -321 -28 -159
-17 -216 30 -157 39 49 57 121 61 250 7 185 -34 334 -117 428 -46 53 -54 48
-47 -25z"/>
<path d="M3885 6910 c-21 -40 -39 -48 -157 -70 -110 -21 -144 -38 -158 -76
-16 -41 -13 -44 48 -44 115 0 184 -31 373 -167 64 -45 126 -83 138 -83 26 0
84 29 157 77 68 45 125 54 164 24 l29 -21 97 60 c158 97 271 123 373 86 60
-22 96 -20 121 6 28 31 25 44 -17 72 -97 62 -208 61 -408 -4 -227 -73 -325
-67 -485 31 -107 66 -176 104 -223 124 -36 15 -36 15 -52 -15z m399 -285 c-7
-17 -65 -45 -93 -45 -19 0 -20 3 -11 20 6 11 17 20 24 20 8 0 24 9 37 19 26
21 52 12 43 -14z"/>
<path d="M9020 6683 c0 -11 49 -90 50 -80 0 11 -39 87 -45 87 -3 0 -5 -3 -5
-7z"/>
<path d="M7145 6649 c-124 -18 -221 -41 -272 -66 -56 -28 -59 -38 -14 -48 20
-4 46 1 83 17 74 32 149 29 231 -10 62 -29 78 -44 247 -234 34 -38 112 -76
118 -57 5 13 -37 78 -58 89 -34 18 -72 77 -65 100 16 49 79 -1 124 -100 26
-56 37 -70 50 -65 9 4 86 11 171 15 236 13 432 75 524 167 l38 38 -54 16 c-29
9 -105 20 -169 24 -64 4 -122 11 -129 15 -21 13 4 38 66 65 28 12 55 28 59 35
11 18 -38 9 -250 -42 -289 -69 -445 -65 -564 17 -28 19 -56 34 -63 34 -7 -1
-40 -5 -73 -10z"/>
<path d="M2333 6290 c-14 -6 -23 -18 -23 -30 0 -17 4 -20 23 -14 25 7 57 33
57 46 0 10 -28 9 -57 -2z"/>
<path d="M2705 6286 c-47 -20 -95 -81 -95 -119 l0 -32 23 27 c12 14 46 41 75
58 45 28 72 55 72 74 0 10 -44 6 -75 -8z"/>
<path d="M9585 6260 c-9 -18 -14 -35 -10 -38 9 -9 88 -2 100 9 5 6 5 9 -2 9
-6 0 -25 11 -42 25 l-30 26 -16 -31z"/>
<path d="M2829 6217 c-6 -14 -8 -34 -4 -44 6 -15 9 -13 23 15 12 24 13 35 4
44 -8 8 -14 5 -23 -15z"/>
<path d="M9455 6211 c-11 -18 32 -32 59 -19 14 6 26 15 26 20 0 11 -77 10 -85
-1z"/>
<path d="M2267 5903 c-19 -18 0 -24 70 -21 50 2 78 7 81 16 3 9 -16 12 -70 12
-41 0 -78 -3 -81 -7z"/>
<path d="M8850 5668 c0 -26 40 -78 64 -84 45 -11 45 6 1 51 -43 45 -65 56 -65
33z"/>
<path d="M2887 5516 c-69 -29 -138 -78 -116 -84 40 -11 42 -12 30 -26 -9 -10
-9 -16 -1 -21 6 -4 17 0 23 8 7 8 33 29 60 46 55 37 87 69 87 88 0 18 -16 16
-83 -11z"/>
<path d="M9170 5452 c0 -5 25 -25 57 -45 45 -29 60 -34 75 -26 11 6 17 16 15
22 -6 20 -147 66 -147 49z"/>
<path d="M2975 5282 c-9 -48 -47 -97 -94 -121 -20 -11 -82 -31 -137 -46 -116
-31 -172 -54 -197 -83 -18 -20 -18 -21 6 -37 30 -20 46 -13 96 39 41 43 51 45
51 11 0 -31 4 -31 87 2 77 31 158 37 158 13 0 -8 -16 -23 -35 -32 -47 -24 -45
-42 6 -46 37 -3 45 1 72 34 30 36 55 109 68 196 5 43 4 50 -17 68 -50 43 -56
43 -64 2z"/>
<path d="M5634 5246 c-36 -17 -61 -38 -81 -67 -51 -76 -50 -80 15 -57 83 29
145 21 234 -33 56 -33 72 -38 79 -28 5 8 9 17 9 21 0 18 -25 69 -63 126 l-41
62 -50 0 c-33 0 -70 -9 -102 -24z"/>
<path d="M6355 5250 c-63 -14 -96 -45 -114 -107 l-8 -29 86 1 c47 0 110 -4
139 -8 l52 -9 0 32 c0 34 -20 79 -44 99 -22 18 -76 28 -111 21z"/>
<path d="M8710 5140 c0 -23 24 -58 51 -74 29 -17 29 -17 29 8 0 15 -12 34 -31
50 -32 27 -49 33 -49 16z"/>
<path d="M3333 4475 c-5 -8 -33 -23 -63 -33 -71 -23 -82 -48 -16 -39 61 9 106
33 106 57 0 25 -17 34 -27 15z"/>
<path d="M5390 4395 c-41 -7 -155 -31 -252 -54 -98 -23 -184 -41 -193 -41 -8
0 -15 -4 -15 -9 0 -17 71 -104 155 -191 82 -85 128 -151 140 -203 6 -23 24
-36 109 -77 437 -216 1071 -117 1311 205 48 65 94 171 79 184 -12 11 -290 106
-374 128 -42 11 -104 17 -175 17 -94 0 -122 -4 -188 -27 -42 -15 -82 -27 -87
-27 -5 0 -29 14 -52 30 -73 51 -149 72 -273 76 -63 1 -142 -3 -185 -11z"/>
<path d="M3273 4213 c-7 -2 -13 -10 -13 -18 0 -7 -10 -20 -22 -29 -22 -16 -21
-16 8 0 17 9 41 25 55 35 22 17 22 19 4 18 -11 0 -26 -3 -32 -6z"/>
<path d="M2605 4191 c-16 -7 -11 -11 31 -25 48 -16 84 -14 84 5 0 24 -72 37
-115 20z"/>
<path d="M2880 4151 c-20 -14 -13 -17 45 -25 38 -4 56 -2 70 9 19 14 19 14 -5
15 -14 0 -41 3 -60 5 -19 3 -42 1 -50 -4z"/>
<path d="M3783 2530 c-90 -40 -177 -165 -190 -270 l-5 -48 56 -41 c63 -47 72
-75 29 -84 -108 -22 -196 -176 -179 -310 9 -68 35 -127 55 -127 9 -1 59 -5
112 -9 108 -10 170 -35 193 -79 13 -25 10 -35 -32 -142 -42 -104 -46 -123 -47
-200 0 -64 5 -94 19 -124 l19 -38 86 4 c68 4 106 13 178 41 50 20 117 40 148
43 52 6 58 5 86 -22 41 -38 62 -82 93 -187 32 -112 59 -160 106 -186 44 -25
118 -28 158 -7 15 8 61 40 102 71 l75 56 37 -41 c20 -22 48 -72 63 -109 29
-77 47 -97 125 -137 44 -22 68 -28 120 -28 71 0 113 17 204 81 86 62 164 93
230 93 56 0 60 -2 100 -44 22 -23 57 -62 76 -85 22 -26 50 -47 76 -56 63 -21
103 -6 190 75 40 38 83 71 94 75 20 6 58 -16 154 -94 97 -78 181 -104 262 -82
l41 11 6 163 c3 89 9 173 12 187 4 14 -33 -44 -83 -128 -49 -84 -92 -155 -95
-158 -11 -12 -76 27 -141 85 -69 61 -112 81 -174 81 -58 0 -98 -24 -136 -84
-41 -64 -74 -89 -112 -84 -21 2 -39 21 -84 86 -81 119 -75 115 -177 115 -99 1
-121 -8 -251 -95 -90 -61 -137 -78 -215 -78 -55 0 -62 3 -92 34 -18 19 -47 71
-65 116 -18 45 -48 98 -66 117 -32 34 -37 35 -83 30 -26 -3 -88 -24 -137 -46
-49 -22 -111 -45 -139 -51 -46 -10 -51 -10 -67 10 -27 33 -38 86 -38 178 0 96
-5 104 -100 150 -50 25 -65 27 -160 26 -80 -2 -133 -9 -224 -32 l-120 -30 -34
36 c-30 33 -33 41 -28 80 7 52 26 90 81 162 23 30 47 70 54 89 15 45 14 103
-1 123 -7 9 -71 40 -143 69 -71 28 -156 65 -187 81 -57 28 -58 29 -58 71 0 69
26 100 117 136 43 17 93 39 111 48 33 17 72 68 72 95 0 23 -47 65 -111 99
-110 59 -121 86 -61 150 26 28 65 51 132 80 111 47 169 87 149 100 -26 16
-142 10 -186 -11z"/>
<path d="M7510 2316 c0 -14 10 -37 23 -52 21 -24 33 -27 120 -35 116 -11 144
-20 159 -55 11 -24 9 -29 -38 -73 -27 -25 -71 -63 -97 -84 -75 -60 -97 -126
-67 -198 l13 -30 28 49 c51 90 140 157 262 196 15 5 17 19 17 105 0 85 -2 99
-17 104 -10 3 -54 19 -97 36 -96 37 -200 61 -260 61 -42 0 -46 -2 -46 -24z"/>
<path d="M7376 2015 c-7 -20 4 -75 15 -75 12 0 12 77 0 84 -5 3 -12 -1 -15 -9z"/>
<path d="M7639 1709 c-12 -7 -11 -10 2 -21 8 -7 35 -37 58 -66 42 -51 92 -87
112 -80 14 5 -28 78 -69 120 -39 41 -82 61 -103 47z"/>
<path d="M8120 1627 c0 -35 81 -94 235 -173 167 -84 256 -137 590 -346 254
-159 389 -237 529 -304 151 -72 205 -88 444 -135 197 -39 266 -60 442 -134
136 -58 355 -89 733 -105 130 -6 279 -17 330 -25 56 -9 104 -12 122 -7 27 8
30 13 33 56 3 52 -17 96 -45 96 -9 0 -46 -16 -82 -36 -64 -35 -66 -36 -145
-29 -273 22 -527 59 -771 111 -88 19 -249 50 -357 70 -231 40 -318 64 -488
134 -166 68 -353 167 -585 308 -104 63 -269 163 -366 222 -181 110 -385 218
-499 264 -36 15 -73 31 -82 36 -24 14 -38 12 -38 -3z"/>
<path d="M3125 1511 c-137 -49 -294 -123 -613 -290 -538 -281 -667 -332 -957
-382 -152 -27 -522 -37 -676 -20 -127 15 -252 43 -340 77 -59 23 -69 25 -90
13 -18 -11 -72 -14 -211 -14 l-187 0 -27 -27 -27 -26 34 -15 c125 -52 269 -89
417 -106 55 -7 288 -12 565 -13 l472 -1 84 42 c153 77 366 141 470 141 32 0
49 8 88 42 67 58 162 100 346 153 205 59 264 88 376 185 50 44 104 86 119 94
15 8 67 21 116 29 99 17 126 35 144 94 19 62 11 64 -103 24z"/>
<path d="M7633 1496 c-89 -28 -177 -107 -188 -169 -8 -40 14 -90 45 -107 19
-10 20 -8 20 32 0 67 26 98 116 142 81 39 134 80 134 103 0 17 -70 16 -127 -1z"/>
<path d="M7529 1119 c-21 -39 -92 -110 -131 -130 -44 -23 -107 -25 -134 -4
-21 16 -35 19 -33 8 4 -24 -3 -45 -21 -63 -17 -17 -33 -20 -109 -20 -66 0 -92
-4 -101 -15 -18 -22 -6 -42 37 -60 119 -50 251 -16 421 108 86 63 126 130 106
181 -8 22 -21 20 -35 -5z"/>
<path d="M5382 495 c-34 -8 -88 -27 -120 -42 l-57 -29 1 -66 c1 -103 38 -132
68 -54 20 52 78 113 142 151 47 27 57 26 87 -12 18 -23 23 -23 107 -17 187 14
281 -35 418 -219 65 -86 67 -88 70 -59 2 17 -9 60 -23 97 -30 73 -28 91 10
101 20 5 35 -1 65 -25 21 -17 41 -31 43 -31 3 0 7 11 9 25 5 24 0 26 -181 84
-341 109 -480 130 -639 96z"/>
<path d="M5072 203 c6 -93 3 -114 -27 -186 -6 -14 -2 -17 19 -17 81 0 122 52
105 130 -14 63 -75 170 -97 170 -4 0 -4 -44 0 -97z"/>
<path d="M5593 253 c-13 -2 -36 -18 -53 -35 -79 -79 -45 -95 43 -20 72 60 73
67 10 55z"/>
<path d="M5702 240 c-22 -10 -22 -10 -3 -29 11 -11 35 -49 52 -83 38 -76 75
-118 105 -118 42 0 45 54 9 127 -37 74 -114 122 -163 103z"/>
<path d="M6240 243 c0 -4 5 -28 11 -52 7 -31 6 -60 -1 -98 -7 -30 -10 -57 -7
-59 3 -3 21 2 41 10 55 23 62 92 15 157 -20 29 -59 57 -59 42z"/>
<path d="M5454 103 c-3 -10 -10 -28 -15 -41 -13 -32 -13 -31 26 -48 67 -28
117 -11 77 26 -11 11 -24 30 -28 42 -12 39 -50 52 -60 21z"/>
<path d="M6070 69 c0 -37 19 -59 50 -59 23 0 30 4 30 20 0 26 -34 60 -60 60
-14 0 -20 -7 -20 -21z"/>
</g>
</svg>
