<?xml version="1.0" encoding="utf-8"?>
<!-- Generator: Adobe Illustrator 16.0.0, SVG Export Plug-In . SVG Version: 6.00 Build 0)  -->
<!DOCTYPE svg PUBLIC "-//W3C//DTD SVG 1.1//EN" "http://www.w3.org/Graphics/SVG/1.1/DTD/svg11.dtd">
<svg version="1.1" id="Layer_1" xmlns="http://www.w3.org/2000/svg" xmlns:xlink="http://www.w3.org/1999/xlink" x="0px" y="0px"
	 width="86.263px" height="86.263px" viewBox="0 0 24 24" enable-background="new 0 0 24 24" xml:space="preserve">
<g>
	<path d="M11.215,13.8c0,0-0.333,0.858-0.331,0.862l0.53,0.753h1.172l0.53-0.753c-0.004-0.013-0.332-0.862-0.332-0.862
		C12.746,13.805,11.254,13.805,11.215,13.8z"/>
	<path d="M8.199,8.792c0.684,1.999,1.97,3.518,3.801,3.518c1.764,0,3.069-1.497,3.775-3.493c1.424-1.437,1.088-2.51,0.759-3.023
		C17.309,2.088,14.944,0,11.866,0C6.349,0,7.312,6.045,7.312,6.045c0.006,0,0.012,0,0.018,0.001
		C7.078,6.616,7.003,7.572,8.199,8.792z M10.504,4.304l-0.403,1.5c1.971-0.601,2.234-0.93,2.544-1.156
		c0.322-0.234,0.594-0.472,0.815-0.688c0.102,0.182,0.23,0.349,0.376,0.501c0.146,0.153,0.362-1.39,0.362-1.39
		s0.544,0.937,0.62,1.239c0.054,0.215,0.398,1.084,0.583,1.163c-0.07,2.868-1.356,5.867-3.401,5.867
		c-1.903,0-3.15-2.601-3.369-5.275C9.154,6.037,10.504,4.304,10.504,4.304z"/>
	<path d="M21.924,16.987c-1.125-3.075-3.789-4.343-3.824-4.359l-2.776-1.021l-0.368,0.895l0.776,0.285l-2.824,9.32l-0.358-6.258
		h-1.1l-0.352,6.145l-2.794-9.22L9.047,12.5l-0.37-0.894l-2.742,1.007l-0.036,0.015c-0.035,0.016-2.698,1.285-3.824,4.359
		c-0.229,0.625-0.393,1.324-0.459,2.102c0.294,0.358,0.607,0.7,0.937,1.026c0.255,0.252,0.52,0.493,0.794,0.724
		c0.539,0.454,1.113,0.868,1.72,1.234c0.321,0.194,0.652,0.373,0.99,0.54c0.516,0.295,1.128,0.542,1.817,0.737
		C9.174,23.771,10.56,24,12,24c1.65,0,3.23-0.299,4.69-0.844c0.42-0.142,0.816-0.309,1.175-0.502
		c0.322-0.173,0.617-0.366,0.87-0.584c0.067,0.002,0.132,0.003,0.197,0.004c0.606-0.366,1.181-0.78,1.72-1.234
		c0.274-0.231,0.54-0.473,0.794-0.725c0.33-0.326,0.643-0.667,0.937-1.026C22.317,18.311,22.153,17.612,21.924,16.987z
		 M4.971,15.841c-0.037,0.2-0.067,0.405-0.092,0.613H4.873c-0.001,0.027-0.002,0.055-0.004,0.082
		C4.731,17.728,4.766,19,4.832,19.965c-0.764-0.583-1.454-1.257-2.055-2.006c0.581-2.295,2.127-3.581,2.968-4.13
		C5.365,14.378,5.117,15.046,4.971,15.841z M18.237,20.044c-1.147,0.461-2.326,0.542-3.006,0.542c-0.23,0-0.4-0.009-0.496-0.016
		v-0.579c0.03,0.003,1.982,0.232,3.502-0.551V20.044z M19.211,19.931c0.078-1.153,0.108-2.733-0.141-4.09
		c-0.141-0.765-0.376-1.412-0.733-1.95c0.852,0.585,2.314,1.872,2.881,4.074C20.629,18.697,19.955,19.357,19.211,19.931z"/>
</g>
</svg>
