<?xml version="1.0" standalone="no"?>
<!DOCTYPE svg PUBLIC "-//W3C//DTD SVG 20010904//EN"
 "http://www.w3.org/TR/2001/REC-SVG-20010904/DTD/svg10.dtd">
<svg version="1.0" xmlns="http://www.w3.org/2000/svg"
 width="1280.000000pt" height="710.000000pt" viewBox="0 0 1280.000000 710.000000"
 preserveAspectRatio="xMidYMid meet">
<g transform="translate(0.000000,710.000000) scale(0.100000,-0.100000)"
fill="#f20f9b" stroke="none">
<path d="M4073 7085 c-138 -25 -285 -84 -453 -182 -218 -128 -395 -263 -935
-713 -413 -345 -527 -435 -865 -677 -598 -427 -1205 -819 -1667 -1074 l-153
-84 0 -56 0 -57 83 -33 c329 -130 1046 -559 1412 -844 61 -47 181 -153 268
-236 265 -254 428 -439 1047 -1190 547 -663 888 -987 1385 -1314 567 -374
1039 -545 1670 -607 176 -17 886 -17 1060 0 590 58 1033 208 1545 522 364 222
655 455 960 766 191 195 303 321 560 633 619 751 782 936 1047 1190 87 83 208
189 268 236 366 285 1083 714 1413 844 l82 33 0 57 0 56 -152 84 c-463 255
-1070 647 -1668 1074 -338 242 -452 332 -865 677 -540 450 -717 585 -935 713
-311 182 -561 234 -799 167 -106 -30 -231 -85 -521 -230 -347 -174 -540 -250
-775 -309 -436 -109 -920 -109 -1360 0 -239 59 -409 127 -825 329 -179 87
-357 170 -396 184 -156 55 -287 67 -431 41z m1744 -2835 c275 -87 455 -113
696 -98 146 8 275 35 472 99 144 46 167 50 230 47 97 -6 193 -47 470 -200 199
-110 532 -272 687 -334 27 -10 48 -21 48 -24 0 -3 -46 -25 -102 -48 -57 -23
-157 -72 -223 -107 -66 -36 -183 -97 -260 -136 -125 -64 -222 -110 -645 -304
-284 -130 -536 -175 -895 -160 -276 11 -448 51 -685 160 -529 242 -632 292
-905 440 -66 35 -166 84 -222 107 -57 23 -103 45 -103 48 0 3 21 14 48 24 150
61 486 223 672 325 269 149 282 155 372 185 110 38 159 35 345 -24z"/>
</g>
</svg>
