<?xml version="1.0" standalone="no"?>
<!DOCTYPE svg PUBLIC "-//W3C//DTD SVG 20010904//EN"
 "http://www.w3.org/TR/2001/REC-SVG-20010904/DTD/svg10.dtd">
<svg version="1.0" xmlns="http://www.w3.org/2000/svg"
 width="640.000000pt" height="1280.000000pt" viewBox="0 0 640.000000 1280.000000"
 preserveAspectRatio="xMidYMid meet">
<g transform="translate(0.000000,1280.000000) scale(0.100000,-0.100000)"
fill="#000000" stroke="none">
<path d="M3250 12789 c-203 -14 -328 -29 -564 -69 -598 -101 -1097 -216 -1431
-330 -148 -50 -328 -138 -378 -183 l-37 -35 0 -163 c0 -253 -23 -415 -116
-829 -197 -872 -263 -1359 -251 -1850 10 -394 75 -714 247 -1215 195 -568 305
-796 508 -1053 79 -101 271 -288 380 -371 180 -136 455 -292 579 -326 l61 -17
40 -87 c97 -211 182 -528 287 -1076 233 -1218 378 -2142 387 -2479 l3 -99
-210 -52 c-489 -122 -865 -250 -1149 -392 -236 -118 -403 -233 -549 -376 -139
-137 -217 -249 -290 -417 -27 -61 -29 -70 -22 -159 38 -545 503 -908 1435
-1119 304 -69 403 -84 625 -89 804 -21 1554 147 2122 473 270 156 559 387 695
557 299 372 378 724 228 1019 -102 201 -222 305 -527 457 -179 89 -639 276
-835 340 -35 12 -41 9 -205 -72 -92 -47 -188 -96 -212 -110 l-44 -25 89 -27
c343 -102 691 -247 984 -410 94 -52 132 -80 185 -137 291 -308 298 -653 22
-1065 -92 -139 -207 -253 -386 -383 -80 -58 -164 -122 -188 -144 -50 -45 -184
-91 -448 -156 -518 -126 -1031 -160 -1435 -94 -1103 180 -1656 557 -1687 1149
-5 106 -4 113 26 190 105 263 213 419 349 506 127 80 636 228 1188 344 117 25
223 45 235 45 l22 0 -6 -272 c-6 -261 -17 -370 -45 -439 -6 -15 -47 -89 -92
-164 -92 -155 -133 -237 -128 -261 9 -44 257 -81 430 -65 111 11 100 6 282
124 160 104 159 92 4 158 -55 23 -102 49 -105 57 -5 12 8 405 30 925 l2 49
150 80 c83 43 154 83 158 87 7 7 -224 -28 -284 -44 l-26 -6 -6 103 c-3 57 -10
146 -16 198 -17 148 -31 493 -31 735 0 425 32 853 96 1267 39 257 165 808 246
1072 22 72 43 142 47 155 6 22 17 26 112 42 139 24 362 82 441 115 239 100
552 317 743 515 272 282 391 496 601 1081 210 584 294 992 294 1422 0 427 -69
935 -211 1571 -126 563 -149 697 -149 868 1 235 68 427 183 518 26 21 48 42
48 46 1 13 -131 53 -296 88 -88 19 -288 73 -445 120 -157 46 -341 96 -410 109
-350 70 -948 103 -1350 75z m571 -189 c466 -26 891 -102 1074 -192 57 -29 196
-110 192 -114 -10 -10 -521 -179 -767 -253 -896 -271 -1209 -335 -1620 -333
-654 2 -1163 111 -1485 318 -31 19 -58 41 -61 47 -2 7 -1 32 4 56 7 44 8 45
67 63 439 134 1225 326 1507 368 298 44 728 60 1089 40z m1453 -505 c-22 -87
-29 -332 -14 -451 13 -109 27 -177 94 -459 89 -377 158 -759 190 -1055 28
-249 45 -662 30 -717 -6 -21 -6 -21 -38 -3 -102 61 -480 184 -703 229 -343 69
-863 132 -1338 161 -307 18 -1239 31 -1515 20 -437 -17 -634 -41 -1093 -132
-59 -11 -110 -18 -113 -15 -7 7 12 302 32 477 38 342 92 637 204 1115 32 138
66 291 75 340 23 125 21 120 50 96 51 -39 309 -113 527 -151 259 -44 715 -77
919 -66 209 10 464 54 772 131 196 50 623 175 1202 355 281 86 456 133 605
160 62 11 116 22 118 25 11 11 10 -2 -4 -60z m-2389 -5856 c77 -5 230 -13 341
-16 l201 -6 -39 -121 c-118 -367 -271 -1114 -327 -1591 -13 -119 -20 -151 -25
-125 -3 19 -58 323 -122 675 -63 352 -133 720 -155 817 -36 163 -89 354 -105
380 -4 7 9 8 42 4 27 -4 112 -11 189 -17z"/>
</g>
</svg>
