<?xml version="1.0" ?><svg enable-background="new 0 0 32 32" version="1.1" width="86.263px" height="86.263px" viewBox="0 0 32 32" xml:space="preserve" xmlns="http://www.w3.org/2000/svg" xmlns:xlink="http://www.w3.org/1999/xlink"><g id="Glyph"><g><polygon points="5.403,13.165 0,15.911 5.403,18.657   "/><polygon points="26.597,13.165 26.597,18.657 32,15.911   "/><polygon points="8.401,7.38 2.394,6.574 5.282,11.902   "/><polygon points="29.606,6.574 23.599,7.38 26.718,11.902   "/><polygon points="21.55,0.805 16.974,4.779 22.064,6.844   "/><polygon points="10.45,0.805 9.936,6.844 15.026,4.779   "/><polygon points="5.282,20.098 2.394,25.426 8.401,24.62   "/><polygon points="26.718,20.098 23.599,24.62 29.606,25.426   "/><polygon points="16.974,27.221 21.55,31.195 22.064,25.156   "/><polygon points="9.936,25.156 10.45,31.195 15.026,27.221   "/><path d="M16.829,11.875v1h-9.52C6.954,13.852,6.75,14.901,6.75,16c0,5.057,4.099,9.156,9.156,9.156    c3.571,0,6.657-2.049,8.166-5.031h-8.904v-1h9.334c0.355-0.977,0.559-2.026,0.559-3.125c0-5.057-4.099-9.156-9.156-9.156    c-3.571,0-6.657,2.049-8.166,5.031H16.829z"/></g></g></svg>